<svg xmlns="http://www.w3.org/2000/svg" width="1400" height="420" viewBox="0 0 1400 420" role="img" aria-label="WieTeach banner">
  <defs>
    <linearGradient id="bg" x1="0" x2="1" y1="0" y2="1">
      <stop offset="0" stop-color="#0b1220"/>
      <stop offset="1" stop-color="#0f172a"/>
    </linearGradient>
    <linearGradient id="accent" x1="0" x2="1" y1="0" y2="0">
      <stop offset="0" stop-color="#7c3aed"/>
      <stop offset="1" stop-color="#22d3ee"/>
    </linearGradient>
  </defs>
  <rect width="1400" height="420" fill="url(#bg)"/>
  <circle cx="1150" cy="90" r="180" fill="#0b1b33" opacity="0.5"/>
  <circle cx="260" cy="360" r="220" fill="#0b1b33" opacity="0.4"/>
  <rect x="70" y="70" width="1260" height="280" rx="28" fill="#0f1f3a" opacity="0.9" stroke="#1f2a44" stroke-width="2"/>
  <rect x="120" y="120" width="420" height="48" rx="12" fill="url(#accent)"/>
  <text x="140" y="155" fill="#0b1220" font-family="Arial, Helvetica, sans-serif" font-size="26" font-weight="700">
    WieTeach
  </text>
  <text x="120" y="230" fill="#e2e8f0" font-family="Arial, Helvetica, sans-serif" font-size="44" font-weight="700">
    Teaching board + recording studio
  </text>
  <text x="120" y="270" fill="#94a3b8" font-family="Arial, Helvetica, sans-serif" font-size="20">
    High-performance whiteboard for live classes, PDFs, and videos
  </text>
  <g transform="translate(860 130)">
    <rect x="0" y="0" width="360" height="200" rx="18" fill="#0b1220" stroke="#1f2a44" stroke-width="2"/>
    <rect x="18" y="18" width="324" height="140" rx="12" fill="#0f172a"/>
    <rect x="18" y="168" width="140" height="18" rx="9" fill="#1f2a44"/>
    <rect x="170" y="168" width="60" height="18" rx="9" fill="#22d3ee"/>
    <rect x="240" y="168" width="60" height="18" rx="9" fill="#7c3aed"/>
    <circle cx="84" cy="88" r="34" fill="#22d3ee" opacity="0.85"/>
    <rect x="130" y="62" width="190" height="14" rx="7" fill="#64748b"/>
    <rect x="130" y="86" width="150" height="12" rx="6" fill="#475569"/>
  </g>
</svg>
